<?xml version="1.0" encoding="utf-8"?>
<!-- Generator: Adobe Illustrator 28.2.0, SVG Export Plug-In . SVG Version: 6.00 Build 0)  -->
<svg version="1.1" id="Layer_1" xmlns="http://www.w3.org/2000/svg" xmlns:xlink="http://www.w3.org/1999/xlink" x="0px" y="0px"
	 viewBox="0 0 1080 1080" style="enable-background:new 0 0 1080 1080;" xml:space="preserve">
<style type="text/css">
	.st0{fill:#01924F;}
	.st1{fill:#F7E019;}
	.st2{fill:#0187C4;}
	.st3{fill:#104263;}
</style>
<path class="st0" d="M630.98,766.76c-12.72,1.83-25.29,4.43-37.8,7.32c-23.58,5.44-46.47,13.08-69.23,21.25
	c-22.44,8.06-45.49,13.94-68.98,18.17c-14.5,2.61-29.05,4.83-43.72,6.12c-21.97,1.93-43.98,2.37-66.03,1.31
	c-24.73-1.18-49.18-4.41-73.42-9.36c-25.4-5.18-50.16-12.51-74.38-21.75c-1.81-0.69-2.2-1.59-2.2-3.34
	c0.03-137.71,0.03-275.43,0.03-413.14c0-3.18,0.07-3.25,3.12-2.07c26.29,10.14,53.34,17.65,80.98,23
	c19.61,3.79,39.41,6.08,59.35,7.37c27.99,1.8,55.9,1.02,83.75-2.11c37.56-4.22,74.15-12.74,109.58-25.9
	c38.51-14.3,78.17-23.71,118.9-28.67c24.93-3.03,49.96-4.4,75.08-3.77c30.7,0.77,61.13,3.96,91.27,9.9
	c22.94,4.52,45.47,10.53,67.64,17.94c2.25,0.75,2.99,1.8,2.99,4.2c-0.07,136.36-0.07,272.73-0.07,409.09c0,6.63,0.01,6.6-6.21,4.55
	c-27.01-8.91-54.55-15.56-82.63-20.14c-36.89-6.02-73.99-7.85-111.27-6.09c-16.96,0.8-33.88,2.33-50.65,5.12
	c-0.62,0.1-1.25,0.1-1.88,0.14c-1.01-1.9-1.99-3.81-3.04-5.68c-3.39-6.01-5.32-12.42-6.04-19.31c-0.7-6.67-0.17-13.28,0.08-19.92
	c0.17-4.7,1.88-8.91,3.69-13.11c0.47-1.1,1.13-1.35,2.35-0.8c2.03,0.93,4.15,1.69,6.29,2.37c11.31,3.59,22.93,5.86,34.6,7.9
	c10.35,1.8,20.75,3.16,31.17,4.51c14.89,1.93,29.83,3.1,44.83,3.43c2.77,0.06,5.56-0.38,8.77-0.63c-1.36-1.55-2.66-1.65-3.82-2.05
	c-15.63-5.29-30.72-11.57-42.43-23.82c-5.5-5.76-9-12.43-8.74-20.7c0.1-3.41,1.53-6.41,2.43-9.59c2.45-8.55,5.26-16.98,9.06-25.01
	c5.67-11.99,13.2-22.87,20.98-33.57c8.32-11.44,16.95-22.68,22.54-35.85c2.72-6.41,4.55-13.06,5.09-19.98
	c1.17-14.99-2.72-28.99-8.71-42.54c-4.18-9.45-9.24-18.43-14.78-27.12c-4.7-7.37-9.44-14.68-16.98-19.78
	c-10.79-7.3-22.51-9.96-35.31-8.38c-12.84,1.58-24.83,6.23-36.92,10.46c-10.32,3.61-20.64,7.19-31.52,8.84
	c-11.06,1.67-21.67,0.5-31.7-4.62c-5.71-2.92-10.7-6.85-15.2-11.39c-3.21-3.24-2.23-2.95-5.74-0.53c-2.88,1.98-5.52,4.27-8.02,6.72
	c-8.08,7.91-15.98,15.94-20.33,26.72c-6.59,16.33-8.05,33.4-7.53,50.78c0.22,7.46,1.39,14.86,1.21,22.34
	c-0.15,6.21-1.08,12.18-4.55,17.48c-3.09,4.72-5.87,9.62-8.8,14.44c-3.67,6.04-8.23,11.5-11.59,17.75
	c-1.79,3.33-1.23,5.11,2.07,7.01c2.36,1.36,5.03,1.89,7.56,2.77c2.14,0.74,4.28,1.63,5.33,3.83c2.19,4.57,2.68,8.97-0.67,13.41
	c-2.82,3.74-2.57,4.06,1.82,5.56c0.42,0.14,0.87,0.22,1.3,0.35c6.22,1.76,12.58,1.94,18.98,1.65c1.12-0.05,2.67-0.52,3.14,0.81
	c0.72,2.03,0.97,4.42,0.1,6.3c-0.35,0.75-2.49-0.59-3.78-1.1c-0.75-0.29-1.5-0.59-2.25-0.89c-4.94-1.93-9.77-2.19-14.45,0.8
	c-3.45,2.21-4.04,5.9-1.24,8.87c2.15,2.28,4.4,4.49,6.7,6.62c1.34,1.23,1.49,2.19,0.1,3.51c-3.84,3.66-6.01,8.23-6.7,13.44
	c-0.46,3.46,0.42,6.52,3.35,8.85c2.37,1.88,5.04,3.17,7.9,3.81c14.59,3.31,28.85,2.57,42.66-3.64c3.37-1.52,6.57-3.48,10.22-4.59
	c0.05,1.01-0.57,1.32-1.01,1.73c-3.86,3.6-8.52,5.81-13.32,7.8c-10.37,4.31-21.29,4.85-32.29,4.53c-6.48-0.19-12.88-1.07-18.96-3.59
	c-2.74-1.14-4.07-3.02-4.07-5.98c-0.01-3.67,1.06-7.09,2.32-10.44c2.13-5.69,3.67-11.32,0.39-17.12c-1.32-2.34-2.45-4.79-3.86-7.07
	c-1.42-2.3-1.57-4.2,0.76-6.01c1.45-1.12,1.94-1.99-0.48-2.96c-4.15-1.65-5.54-5.73-3.93-9.88c1.44-3.71,2-7.62,2.58-11.53
	c0.28-1.89-0.32-2.78-2.26-3.13c-3.7-0.67-7.48-0.98-11.06-2.28c-5.81-2.1-7.36-4.96-4.66-11.61c2.1-5.17,5.98-9.33,9.27-13.79
	c5.03-6.81,9.64-13.84,12.19-21.97c1.9-6.06,4.12-12.13,4.24-18.56c0.12-6.82,0.02-13.65-0.29-20.49
	c-0.68-14.72,1.26-29.16,5.1-43.41c2.43-9.02,6.88-16.49,13.73-22.85c4.8-4.45,8.81-9.76,10.99-16.07
	c4.57-13.24,4.55-26.4-1.23-39.37c-3.74-8.39-8.78-15.69-17.58-19.34c-6.97-2.89-14.24-4.88-21.85-5.42
	c-10.79-0.75-21.32,0.97-31.79,3.23c-1.42,0.31-3.09,0.34-4.51,1.54c1.54,0.82,2.95,1.06,4.35,1.34c5.32,1.08,10.79,2.25,14.15,6.91
	c7.65,10.61,8.14,22.12,3.08,33.91c-2.68,6.26-7.47,11.12-11.92,16.14c-1.05,1.18-1.68,2.92-3.59,3.6c-0.09-1.13-0.21-2-0.22-2.88
	c-0.2-15.29-7.45-26.51-21.08-32.61c-17.9-8.02-36.09-8.69-53.72,1.61c-1.66,0.97-1.2,1.4-0.01,2.11c1.6,0.95,3.23,1.86,4.8,2.87
	c9.38,6.06,16.41,13.85,18.44,25.28c0.84,4.75,0.98,9.46-0.79,14.73c-1.98-4.67-6.18-6.36-8.98-9.47c-5.48-6.1-12.5-8.41-20.45-8.55
	c-17.2-0.3-30.14,8.2-41.59,19.95c-1.62,1.66-0.95,2.4,0.39,3.48c2.72,2.18,5.63,4.19,8.04,6.68c7.42,7.69,15.05,15.17,22.58,22.75
	c2.4,2.42,5,4.73,6.76,8.07c-0.84,0-1.38,0.05-1.9-0.01c-14.85-1.53-28.98,1.25-42.42,7.45c-10.32,4.76-19.34,11.25-25.34,21.28
	c-1.13,1.88-1.02,2.71,1.34,2.81c2.61,0.11,5.14,0.61,7.63,1.46c8.67,2.98,15.39,8.97,22.44,14.45c6.47,5.03,11.28,11.7,17.25,17.2
	c2.21,2.04,1.94,3.66,0.3,5.74c-5.2,6.57-12.35,9.71-20.26,11.09c-6.95,1.21-13.75-0.49-20.44-2.38c-2.5-0.71-5.03-1.31-7.57-1.85
	c-1.68-0.36-2.36,0.24-1.71,2.05c5.58,15.48,13.48,29.59,24.38,41.98c8.83,10.03,21.61,13.53,32.99,9.02
	c2.43-0.96,4.07-2.89,5.95-4.51c1.08-0.93,1.67-1.08,1.72,0.63c0.06,2.16,0.18,4.3-0.84,6.33c-6.26,12.52-10.7,25.8-15.93,38.74
	c-2.08,5.13-4.05,10.26-8.39,14.16c-3.54,3.18-7.86,5.28-11.25,8.64c-1.26,1.25-1.32,1.86,0.32,2.69c4.59,2.34,9.12,4.8,13.69,7.19
	c4.44,2.32,8.93,4.71,13.87,5.53c7.97,1.33,16.01,2.57,24.13,1.61c10.72-1.27,19.66-5.77,25.99-14.8c1.27-1.81,2.53-3.62,3.88-5.56
	c1.7,3.49,2.51,7.06,3.32,10.6c1.76,7.73,2.33,15.46-0.78,23.04c-2.64,6.43-6.82,11.68-12.22,15.99c-0.76,0.6-1.88,1.14-1.81,2.18
	c0.07,1.18,1.42,0.88,2.18,1.08c11.42,2.9,23.04,3.98,34.75,2.83c6.25-0.61,12.39-2.12,18.11-4.91
	c10.41-5.07,17.9-12.97,22.56-23.53c0.67-1.52,1.12-1.52,2.18-0.46c2.74,2.72,5.44,5.46,7.96,8.39c4.66,5.41,8.19,11.27,8.43,18.7
	c0.26,8.2-3.29,15.12-7.06,22c-0.39,0.71-1.29,1.35-0.15,3.07c34.34-15.7,58.43-40.63,70.38-76.98c1.71,5.57,3.04,11.03,5.54,16.13
	c1.91,3.89,4.66,7.21,6.77,10.93c2.93,5.17,6.53,9.8,10.64,14.04c6.03,6.21,12.97,11.24,20.42,15.61
	C629.42,764.76,630.99,765.03,630.98,766.76z M770.5,559.64c1.29-0.84,1.49-1.92,1.79-2.92c0.93-3.09,1.79-6.19,2.48-9.36
	c4.92-22.73,0.67-44-10.19-64.19c-8.31-15.44-19.96-28.36-31.82-41.03c-11.2-11.96-24.2-21.79-38.49-29.84
	c-11.12-6.27-22.83-11.21-35.16-14.5c-14.93-3.99-30.12-5.96-45.61-4.49c-12.84,1.22-25.2,4.07-35.78,11.94
	c-12.19,9.07-15.46,20.75-10.14,33.86c4.25,10.47,11.75,18.75,20.68,25.6c9.21,7.06,19.73,6.83,30.37,4.62
	c10.21-2.12,19.91-5.91,29.59-9.7c11.01-4.32,22.01-8.68,33.72-10.81c6.39-1.17,12.84-1.61,19.24-0.19
	c16.99,3.76,30.57,13.09,41.35,26.41c12.47,15.4,19.7,33.37,24.04,52.53c2.02,8.93,3.5,17.98,3.43,27.21
	C769.99,556.33,770.31,557.88,770.5,559.64z"/>
<path class="st1" d="M194.9,229c0-41.01,0-82.03,0-123.04c0-3.8,0.15-3.93,3.96-3.93c43.89,0.02,87.78,0.05,131.68-0.03
	c2.72,0,3.45,0.67,3.44,3.41c-0.12,19.16-0.07,38.32-0.03,57.47c0.01,4.02-0.63,3.78,3.77,3.78c41.46,0.02,82.93,0,124.39-0.01
	c1.98,0,3.96,0.06,5.94,0.01c4.6-0.11,4.09,0.51,4.11-4.02c0.05-13.22,0.01-26.44,0.02-39.67c0-5.94,0.18-11.88-0.04-17.81
	c-0.1-2.72,0.82-3.19,3.33-3.19c41.37,0.07,82.75,0.04,124.12,0.03c2.79,0,5.58,0.1,8.36-0.04c2.49-0.12,3.28,0.96,3.28,3.34
	c-0.05,19.07-0.04,38.14-0.03,57.2c0,3.92,0.43,4.06,4.38,3.58c1.95-0.24,4,0.37,6.04,0.36c41.19-0.04,82.39-0.03,123.58-0.02
	c3.58,0,3.59,0.01,3.59-3.58c0.01-19.34,0.04-38.68-0.03-58.01c-0.01-2.03,0.42-2.92,2.61-2.82c2.87,0.14,5.75-0.01,8.63-0.01
	c41.37-0.01,82.75-0.01,124.12-0.01c4.04,0,4.31,0.25,4.31,4.23c0.01,81.58,0.02,163.16,0.04,244.74c0,0.81,0.04,1.62,0.04,2.43
	c-0.02,2.68-0.73,3.18-3.21,2.34c-5.43-1.85-10.75-4.22-16.32-5.4c-7.4-1.56-14.46-4.2-21.81-5.88c-7.21-1.64-14.41-3.43-21.62-5.05
	c-4.73-1.07-9.56-2.07-14.4-2.82c-5.21-0.81-10.48-1.57-15.68-2.67c-2.94-0.62-5.99-0.57-8.98-1.25
	c-6.86-1.55-13.92-1.79-20.87-2.77c-5.64-0.79-11.43-1.03-17.15-1.45c-16.59-1.21-33.22-1.37-49.82-0.77
	c-6.33,0.23-12.75,0.04-19.01,0.95c-7.02,1.02-14.14,0.52-21.1,1.88c-6.3,1.23-12.75,1.35-19.06,2.39
	c-6.5,1.07-13.13,1.55-19.51,3.14c-7.91,1.97-16.06,2.67-23.89,5.07c-5.24,1.6-10.92,1.88-16.04,3.74
	c-5.95,2.17-12.21,2.86-18.19,4.89c-3.72,1.27-7.82,2.13-11.21,3.85c-4.24,2.15-9.04,2.36-13.08,4.84
	c-3.04,1.86-6.64,2.56-10.05,3.26c-4.2,0.86-7.95,2.85-12.05,3.94c-5.48,1.46-10.79,3.54-16.3,4.96c-4.37,1.12-8.7,2.36-13.07,3.48
	c-4.03,1.04-8.06,2.1-12.12,3c-6.51,1.44-13.03,2.87-19.58,4.09c-5.27,0.98-10.63,1.5-15.9,2.5c-6.52,1.23-13.12,1.85-19.7,2.51
	c-8.12,0.81-16.26,1.41-24.41,1.92c-12.39,0.78-24.78,1.04-37.17,0.69c-10.66-0.3-21.32-0.98-31.95-1.92
	c-10.89-0.95-21.71-2.4-32.51-4.09c-8.57-1.34-17.09-2.92-25.53-4.81c-6.72-1.5-13.49-2.8-20.1-4.9c-3.73-1.19-7.74-1.81-11.59-2.74
	c-4.67-1.13-9.3-2.64-13.83-4.41c-4.04-1.58-8.25-2.68-12.36-4.08c-4.17-1.42-8.31-2.89-12.43-4.45c-1.81-0.68-2-2.37-2-4.04
	c0-3.96,0.01-7.92,0.01-11.87c0-37.51,0-75.01,0-112.52C194.92,229,194.91,229,194.9,229z M621.65,260.33c0,0,0.01,0,0.01,0
	c0,15.02,0.03,30.04-0.03,45.07c-0.01,2.32,0.73,3.3,3.13,3.08c6.19-0.57,12.4-0.48,18.59-0.22c2.69,0.11,2.96-0.87,2.93-2.99
	c-0.08-6.57-0.06-13.13-0.06-19.7c0-17.09,0.08-34.18-0.03-51.27c-0.02-2.8,0.88-3.68,3.54-3.46c2.05,0.18,4.13,0.03,6.2,0.02
	c4.04-0.03,4.04-0.03,4.04,3.91c0,23.39,0.02,46.78-0.07,70.16c-0.01,2.44,0.63,3.26,3.13,3.2c6.11-0.17,12.24-0.19,18.35,0.01
	c2.71,0.09,3.46-0.69,3.45-3.44c-0.1-29.86-0.09-59.73-0.01-89.59c0.01-2.48-1.08-2.74-3.07-2.74c-18.89,0.04-37.78,0.07-56.67-0.02
	c-2.64-0.01-3.54,0.67-3.51,3.46C621.73,230.65,621.65,245.49,621.65,260.33z M312.74,305.25c0.01,0,0.03,0,0.04,0
	c0-4.32-0.11-8.63,0.04-12.94c0.08-2.17-0.71-3.02-2.77-2.66c-2.35,0.41-3.16-0.76-3.49-2.89c-0.67-4.44-1.48-8.85-2.27-13.27
	c-2-11.22-4.02-22.44-6.02-33.66c-1.5-8.39-2.99-16.78-4.47-25.17c-0.24-1.36-0.7-2.39-2.34-2.38c-8.9,0.06-17.8,0.11-26.7,0.13
	c-1.3,0-1.91,0.52-2.14,1.84c-0.61,3.45-1.36,6.87-2.03,10.31c-4.03,20.7-8.07,41.4-12.06,62.11c-0.42,2.16-1.22,3.41-3.68,2.99
	c-1.52-0.26-2.53,0.14-2.52,2.1c0.06,9.08,0.02,18.16-0.01,27.24c0,1.29,0.41,2.03,1.85,2.03c5.93-0.02,11.87-0.01,17.8,0.03
	c1.61,0.01,1.94-0.83,1.86-2.24c-0.16-2.78-0.06-5.59-0.37-8.35c-0.21-1.83,0.29-2.44,2.09-2.43c7.91,0.05,15.82,0.05,23.74,0
	c1.5-0.01,2.18,0.5,2.1,2.01c-0.16,2.78-0.2,5.57-0.48,8.33c-0.21,2,0.44,2.73,2.48,2.7c5.57-0.09,11.15-0.11,16.72,0.01
	c2.25,0.05,2.72-0.89,2.66-2.91C312.65,313.88,312.74,309.56,312.74,305.25z M542.26,260.04c0,7.82-0.24,15.66,0.06,23.47
	c0.41,10.52,5.07,18.8,14.9,23.08c9.82,4.28,20.2,4.56,30.26,0.87c10.34-3.8,16.54-11.31,17.62-22.6c0.47-4.94,0.21-9.88,0.17-14.82
	c-0.1-11.95,0.68-23.94-0.37-35.86c-0.76-8.58-5.24-15.01-12.97-19.2c-7.81-4.24-16.18-4.62-24.65-3.84
	c-6.63,0.61-12.66,3.14-17.59,7.78c-5.21,4.91-7.3,11.2-7.4,18.18C542.18,244.75,542.26,252.39,542.26,260.04z M701.23,259.81
	c0,7.64,0.03,15.29-0.01,22.93c-0.05,10.45,6.27,21.3,17.31,24.74c9.81,3.05,19.76,3.36,29.31-0.64
	c9.92-4.15,15.89-11.93,16.2-22.78c0.46-15.81,0.41-31.66,0.02-47.48c-0.24-9.92-4.87-17.53-14.15-22.1
	c-7.24-3.56-14.85-4.14-22.6-3.45c-15.58,1.39-26.2,10.97-26.1,27.46C701.26,245.6,701.23,252.71,701.23,259.81z M329.26,269.29
	c0,0-0.01,0-0.01,0c0,11.69,0,23.39,0,35.08c0,3.61,0.01,3.62,3.51,3.62c8.55,0,17.09-0.06,25.64,0.02c4.59,0.04,9.15,0.12,13.66-1
	c8.86-2.21,15.35-7.11,18.38-15.98c2.6-7.62,2.39-15.48,1.06-23.2c-1.67-9.67-7.69-15.66-17.22-18.23
	c-5.71-1.54-11.51-1.96-17.36-1.75c-2.69,0.1-3.33-0.83-3.3-3.36c0.13-9.71,0.05-19.43,0.08-29.14c0.01-1.67-0.03-3.01-2.33-2.99
	c-11.06,0.08-22.13,0.08-33.19,0.06c-1.59,0-2.27,0.51-2.31,2.15c-0.1,4.67-0.3,9.34-0.51,14.01c-0.07,1.64,0.62,2.23,2.22,2.18
	c2.79-0.09,5.58,0.07,8.36-0.1c2.5-0.16,3.41,0.59,3.38,3.29C329.18,245.72,329.26,257.51,329.26,269.29z M433.65,241.54
	c0.13,0,0.26-0.01,0.39-0.01c0.45,4.02,0.94,8.03,1.35,12.05c1.79,17.52,3.58,35.04,5.29,52.57c0.15,1.56,0.76,1.94,2.18,1.93
	c6.92-0.05,13.85-0.09,20.77,0.02c2.02,0.03,2.24-0.88,1.96-2.45c-0.69-3.88-1.4-7.76-2.05-11.64c-1.99-11.94-3.93-23.89-5.94-35.82
	c-2.44-14.48-4.95-28.95-7.35-43.43c-0.31-1.85-1.22-2.34-2.91-2.33c-8.54,0.03-17.09,0.03-25.63-0.02
	c-1.6-0.01-2.41,0.48-2.73,2.19c-2.78,15.07-5.66,30.13-8.49,45.19c-2.83,15.09-5.63,30.18-8.49,45.26
	c-0.36,1.92,0.06,2.95,2.19,2.94c6.39-0.03,12.77-0.06,19.16-0.01c1.84,0.01,2.52-0.84,2.72-2.54c1.62-13.81,3.29-27.62,4.93-41.43
	C431.89,256.51,432.77,249.02,433.65,241.54z M808.6,240.75c0.22,0.96,0.34,1.29,0.38,1.63c2.1,20.92,4.22,41.84,6.25,62.77
	c0.18,1.84,0.68,2.86,2.68,2.85c6.66-0.03,13.31-0.04,19.97-0.01c2.06,0.01,2.7-0.92,2.33-2.86c-0.53-2.73-0.98-5.47-1.45-8.22
	c-3.33-19.38-6.64-38.75-9.98-58.13c-1.39-8.06-2.84-16.1-4.19-24.16c-0.25-1.51-0.91-2.24-2.44-2.24
	c-8.54,0.02-17.08,0.05-25.62,0.01c-1.91-0.01-2.63,0.75-2.91,2.63c-0.7,4.61-1.62,9.19-2.49,13.77c-2,10.57-4.05,21.14-6.04,31.71
	c-2.79,14.83-5.48,29.67-8.36,44.48c-0.48,2.47,0.36,3.04,2.53,3.02c6.03-0.04,12.06-0.14,18.08,0.04c2.44,0.07,3.19-0.78,3.46-3.1
	c2.03-17.75,4.16-35.49,6.29-53.23C807.49,248.26,808.03,244.82,808.6,240.75z M477.89,260.15c0,15.01,0.03,30.03-0.04,45.04
	c-0.01,2.19,0.64,2.97,2.9,2.91c6.02-0.14,12.05-0.05,18.07-0.05c3.53,0,3.54,0.01,3.54-3.47c0-23.56,0.03-47.11-0.04-70.67
	c-0.01-2.25,0.68-2.97,2.89-2.95c7.19,0.06,14.38-0.14,21.57-0.03c2.14,0.03,2.65-0.72,2.56-2.64c-0.2-4.31-0.44-8.63-0.35-12.94
	c0.06-2.62-1.04-3.15-3.37-3.14c-14.38,0.08-28.77,0.04-43.15,0.06c-5.06,0.01-4.55-0.42-4.57,4.43
	C477.86,231.2,477.89,245.68,477.89,260.15z"/>
<path class="st2" d="M195.44,802.98c7.94,3.03,15.58,5.9,23.34,8.43c23.35,7.6,47.12,13.47,71.35,17.55
	c37.42,6.31,75.05,7.98,112.86,5.21c32.06-2.35,63.6-7.89,94.54-16.68c15.3-4.34,30.2-9.86,45.2-15.09
	c24.28-8.47,49.15-14.88,74.48-19.5c17.76-3.24,35.6-5.8,53.58-7.25c22.07-1.77,44.17-2.17,66.3-1.26
	c37.48,1.55,74.34,7.17,110.66,16.43c12.8,3.26,25.41,7.16,37.96,11.27c1.51,0.49,2.08,1.13,2.11,2.78
	c0.54,26.54-1.4,52.81-8.33,78.54c-10.88,40.45-36.09,67.88-75.32,82.33c-10.74,3.96-22.13,5.33-33.37,7.18
	c-21.11,3.46-42.28,6.44-63.5,9.09c-15.05,1.88-30.15,3.46-45.24,5.03c-16.72,1.74-33.64,1.71-50.17,4.86
	c-25.29,4.83-48.86,13.91-68.72,30.98c-1.17,1.01-1.76,1.1-3.06,0.03c-24.51-20.08-52.93-30.31-84.25-32.89
	c-20.59-1.69-41.18-3.41-61.7-5.81c-26.95-3.15-53.84-6.71-80.61-11.17c-10.26-1.71-20.59-3.03-30.59-6.08
	c-24.06-7.33-43.65-21.09-58.99-40.96c-12.07-15.63-18.65-33.58-22.73-52.71c-4.84-22.74-6.39-45.72-5.88-68.89
	C195.36,804.09,195.39,803.73,195.44,802.98z"/>
<path class="st1" d="M630.98,766.76c0.01-1.73-1.56-1.99-2.6-2.6c-7.45-4.37-14.39-9.41-20.42-15.61
	c-4.11-4.24-7.71-8.87-10.64-14.04c-2.11-3.72-4.86-7.04-6.77-10.93c-2.5-5.1-3.83-10.56-5.54-16.13
	c-11.95,36.36-36.04,61.28-70.38,76.98c-1.14-1.72-0.24-2.36,0.15-3.07c3.77-6.88,7.31-13.8,7.06-22
	c-0.23-7.43-3.77-13.29-8.43-18.7c-2.52-2.93-5.22-5.67-7.96-8.39c-1.06-1.05-1.51-1.05-2.18,0.46
	c-4.66,10.56-12.15,18.46-22.56,23.53c-5.72,2.79-11.86,4.3-18.11,4.91c-11.72,1.15-23.33,0.06-34.75-2.83
	c-0.76-0.19-2.11,0.1-2.18-1.08c-0.06-1.04,1.06-1.57,1.81-2.18c5.4-4.32,9.59-9.56,12.22-15.99c3.11-7.58,2.54-15.31,0.78-23.04
	c-0.81-3.54-1.62-7.11-3.32-10.6c-1.35,1.94-2.62,3.75-3.88,5.56c-6.33,9.03-15.27,13.53-25.99,14.8
	c-8.12,0.96-16.16-0.27-24.13-1.61c-4.94-0.83-9.44-3.21-13.87-5.53c-4.57-2.39-9.1-4.85-13.69-7.19c-1.63-0.83-1.58-1.44-0.32-2.69
	c3.39-3.36,7.71-5.45,11.25-8.64c4.33-3.9,6.31-9.03,8.39-14.16c5.24-12.94,9.67-26.22,15.93-38.74c1.02-2.03,0.9-4.17,0.84-6.33
	c-0.05-1.71-0.64-1.56-1.72-0.63c-1.89,1.63-3.52,3.55-5.95,4.51c-11.38,4.52-24.16,1.01-32.99-9.02
	c-10.9-12.39-18.8-26.5-24.38-41.98c-0.65-1.81,0.03-2.41,1.71-2.05c2.54,0.54,5.07,1.14,7.57,1.85c6.7,1.89,13.49,3.59,20.44,2.38
	c7.91-1.38,15.06-4.51,20.26-11.09c1.65-2.08,1.91-3.71-0.3-5.74c-5.97-5.5-10.78-12.18-17.25-17.2
	c-7.06-5.48-13.77-11.47-22.44-14.45c-2.49-0.86-5.02-1.35-7.63-1.46c-2.36-0.1-2.46-0.93-1.34-2.81
	c6-10.03,15.01-16.52,25.34-21.28c13.44-6.19,27.58-8.98,42.42-7.45c0.53,0.05,1.06,0.01,1.9,0.01c-1.76-3.34-4.36-5.65-6.76-8.07
	c-7.53-7.58-15.16-15.06-22.58-22.75c-2.4-2.49-5.32-4.5-8.04-6.68c-1.34-1.07-2.01-1.81-0.39-3.48
	c11.45-11.75,24.39-20.25,41.59-19.95c7.95,0.14,14.96,2.45,20.45,8.55c2.79,3.11,6.99,4.8,8.98,9.47
	c1.77-5.26,1.63-9.98,0.79-14.73c-2.02-11.43-9.05-19.22-18.44-25.28c-1.56-1.01-3.2-1.92-4.8-2.87c-1.19-0.71-1.65-1.15,0.01-2.11
	c17.63-10.3,35.81-9.63,53.72-1.61c13.64,6.11,20.88,17.32,21.08,32.61c0.01,0.88,0.13,1.76,0.22,2.88c1.91-0.68,2.55-2.42,3.59-3.6
	c4.45-5.01,9.23-9.88,11.92-16.14c5.06-11.79,4.56-23.3-3.08-33.91c-3.36-4.67-8.84-5.83-14.15-6.91c-1.4-0.29-2.81-0.53-4.35-1.34
	c1.42-1.2,3.09-1.23,4.51-1.54c10.47-2.26,21-3.98,31.79-3.23c7.61,0.53,14.88,2.52,21.85,5.42c8.8,3.65,13.84,10.95,17.58,19.34
	c5.79,12.96,5.8,26.13,1.23,39.37c-2.18,6.31-6.19,11.61-10.99,16.07c-6.85,6.36-11.3,13.83-13.73,22.85
	c-3.84,14.25-5.78,28.68-5.1,43.41c0.31,6.83,0.42,13.66,0.29,20.49c-0.12,6.44-2.34,12.5-4.24,18.56
	c-2.55,8.13-7.16,15.16-12.19,21.97c-3.29,4.46-7.17,8.62-9.27,13.79c-2.71,6.65-1.15,9.51,4.66,11.61
	c3.58,1.3,7.36,1.61,11.06,2.28c1.94,0.35,2.54,1.24,2.26,3.13c-0.58,3.91-1.14,7.82-2.58,11.53c-1.61,4.15-0.22,8.23,3.93,9.88
	c2.43,0.97,1.94,1.83,0.48,2.96c-2.33,1.8-2.18,3.71-0.76,6.01c1.41,2.28,2.54,4.73,3.86,7.07c3.28,5.8,1.74,11.43-0.39,17.12
	c-1.26,3.35-2.33,6.78-2.32,10.44c0.01,2.96,1.33,4.85,4.07,5.98c6.08,2.52,12.48,3.4,18.96,3.59c11,0.33,21.92-0.22,32.29-4.53
	c4.8-1.99,9.46-4.2,13.32-7.8c0.45-0.42,1.06-0.72,1.01-1.73c-3.66,1.11-6.85,3.07-10.22,4.59c-13.81,6.21-28.08,6.96-42.66,3.64
	c-2.85-0.65-5.52-1.94-7.9-3.81c-2.94-2.32-3.81-5.38-3.35-8.85c0.69-5.21,2.86-9.78,6.7-13.44c1.38-1.32,1.23-2.27-0.1-3.51
	c-2.31-2.13-4.55-4.33-6.7-6.62c-2.8-2.97-2.22-6.66,1.24-8.87c4.68-3,9.51-2.73,14.45-0.8c0.75,0.29,1.5,0.59,2.25,0.89
	c1.29,0.5,3.43,1.85,3.78,1.1c0.87-1.88,0.62-4.27-0.1-6.3c-0.47-1.33-2.02-0.86-3.14-0.81c-6.4,0.29-12.76,0.11-18.98-1.65
	c-0.43-0.12-0.88-0.2-1.3-0.35c-4.4-1.5-4.65-1.82-1.82-5.56c3.35-4.44,2.86-8.84,0.67-13.41c-1.05-2.2-3.19-3.09-5.33-3.83
	c-2.54-0.88-5.2-1.41-7.56-2.77c-3.3-1.9-3.86-3.68-2.07-7.01c3.35-6.25,7.92-11.71,11.59-17.75c2.93-4.82,5.71-9.72,8.8-14.44
	c3.47-5.29,4.4-11.27,4.55-17.48c0.18-7.48-0.98-14.88-1.21-22.34c-0.52-17.38,0.94-34.44,7.53-50.78
	c4.35-10.78,12.24-18.81,20.33-26.72c2.5-2.44,5.14-4.73,8.02-6.72c3.51-2.42,2.53-2.71,5.74,0.53c4.51,4.55,9.49,8.48,15.2,11.39
	c10.03,5.12,20.64,6.3,31.7,4.62c10.88-1.65,21.19-5.23,31.52-8.84c12.1-4.22,24.08-8.88,36.92-10.46
	c12.79-1.58,24.51,1.08,35.31,8.38c7.54,5.1,12.28,12.41,16.98,19.78c5.54,8.69,10.61,17.66,14.78,27.12
	c5.99,13.56,9.88,27.55,8.71,42.54c-0.54,6.92-2.37,13.57-5.09,19.98c-5.59,13.17-14.22,24.41-22.54,35.85
	c-7.78,10.7-15.3,21.58-20.98,33.57c-3.8,8.03-6.61,16.46-9.06,25.01c-0.91,3.18-2.33,6.18-2.43,9.59
	c-0.25,8.26,3.24,14.93,8.74,20.7c11.7,12.25,26.8,18.53,42.43,23.82c1.16,0.39,2.47,0.5,3.82,2.05c-3.21,0.24-6,0.69-8.77,0.63
	c-15-0.33-29.93-1.5-44.83-3.43c-10.42-1.35-20.82-2.71-31.17-4.51c-11.67-2.03-23.29-4.31-34.6-7.9c-2.13-0.68-4.25-1.44-6.29-2.37
	c-1.21-0.56-1.87-0.3-2.35,0.8c-1.82,4.2-3.52,8.41-3.69,13.11c-0.24,6.64-0.77,13.25-0.08,19.92c0.72,6.9,2.65,13.3,6.04,19.31
	c1.05,1.87,2.03,3.79,3.04,5.68C634.19,768.11,632.43,766.68,630.98,766.76z M542.81,731.23c1.24-0.21,1.73,0.83,2.36,1.51
	c2.69,2.9,4.82,6.22,6.83,9.6c0.93,1.56,1.61,1.57,2.74,0.14c2.2-2.78,3.81-5.88,4.93-9.19c1.75-5.16,2.59-10.43,1.53-15.9
	c-0.33-1.7-1.08-2.42-2.87-2.38c-15.94,0.34-31.76-0.98-47.54-3.17c-11.5-1.59-22.85-3.71-33.68-8
	c-18.55-7.35-34.72-18.2-47.55-33.57c-11.95-14.32-23.45-28.99-27.02-48.87c-2.08,4.12-4.65,7.32-4.12,11.51
	c0.95,7.48,2.17,14.91,2.85,22.43c0.66,7.35-0.25,13.9-5.79,19.53c-5.71,5.81-11.83,11.25-16.9,17.68c-0.53,0.67-1.64,1.2-1.27,2.2
	c0.4,1.08,1.58,0.63,2.39,0.59c11.08-0.49,20.54-4.43,27.86-13.03c1.03-1.2,1.95-2.71,3.95-3.29c0,0.96,0.02,1.67,0,2.38
	c-0.37,11.22-5.94,18.97-15.81,24c-5.21,2.65-10.82,4.17-16.39,6.14c2.54,1.48,10.63,2.62,14.86,2.2
	c11.57-1.14,19.16-7.64,24.17-17.74c2.04-4.1,3.38-8.45,4.86-13.12c4.41,8.68,2.17,16.77-1.47,25.18c1.47-0.42,2.23-0.48,2.82-0.82
	c4.59-2.69,8.9-5.64,11.36-10.65c1.84-3.74,1.95-3.72,4.96-0.71c3.6,3.6,7.05,7.33,10.23,11.34c8.53,10.78,12.4,22.69,9.47,36.43
	c-0.18,0.85-0.78,2.11,0.49,2.54c1.09,0.37,1.5-0.86,1.85-1.59c2.44-5.07,4.86-10.15,7.18-15.27c1.69-3.73,3.2-7.54,4.84-11.41
	c1.2,0.87,1.35,1.95,1.6,2.98c1.69,6.96,1.57,13.89-0.6,20.72c-0.61,1.94-0.01,2.31,1.68,1.76c1.96-0.64,3.84-1.45,5.6-2.59
	c6.58-4.27,11.6-10.07,16.02-16.41c1.56-2.24,3.02-2.21,5.19-1.17c10,4.77,17.73,12.29,24.99,20.41c3.53,3.95,6.63,8.21,9.65,12.54
	c0.51,0.74,1.22,2.2,1.92,0.23c1.97-5.58,4.2-11.16,3.41-17.27c-0.34-2.65-1.01-5.26-1.53-7.89L542.81,731.23z M438.06,437.67
	c-0.08-0.14-0.15-0.29-0.23-0.43c0.09,0.13,0.18,0.27,0.26,0.4c6.73,9.26,10.55,19.26,8.35,30.98c-1.76,9.39-6.79,16.24-15.29,20.49
	c-2.9,1.45-3.75,0.87-3.47-2.39c0.59-6.85-1.56-11.95-7.53-15.99c-11.92-8.06-24.63-9.65-38.29-6.26c-0.9,0.22-1.93,0.55-1.66,1.71
	c0.27,1.17,1.38,0.59,2.06,0.48c9.34-1.47,17.71,1.28,25.79,5.66c6.38,3.46,10.35,8.44,10.69,15.88c0.12,2.59,0.12,5.19,0.08,7.79
	c-0.01,0.75,0.28,1.79-0.57,2.2c-0.86,0.42-1.45-0.5-2.08-0.94c-8.36-5.87-17.15-11.03-26.16-15.8c-2.02-1.07-4.01-2.5-6.87-2.53
	c0.57,0.72,0.87,1.16,1.22,1.54c4.15,4.43,8.36,8.8,12.44,13.29c9.07,9.96,9.85,21.34,5.62,33.96c-2.09-2.3-4.25-3.99-6.91-4.95
	c-6.14-2.22-12.38-1.63-18.61-0.62c-7.56,1.22-14.83,3.47-21.87,6.45c-0.82,0.35-2.26,0.6-2.05,1.71c0.19,1,1.53,1.15,2.53,1.08
	c1.88-0.14,3.74-0.42,5.62-0.59c5.01-0.45,10.03-1.05,14.99,0.36c8.37,2.37,13.63,11.73,13.94,21.06
	c-13.58-13.98-30.04-10.47-46.62-8.77c0.99,1.69,2.02,2.49,3.27,3.04c13.62,5.88,26.35,13.39,38.97,21.11
	c2.06,1.26,3.15,2.58,2.83,5.12c-0.36,2.84-0.28,5.74-0.53,8.61c-0.87,10.31-5.09,18.37-14.77,23.23c-8.17,4.09-16.07,4.33-24.13,0
	c-2.71-1.45-5.4-3-8.6-3.6c0.68,1.72,1.86,2.79,3.13,3.82c3.45,2.79,7.41,4.67,11.4,6.5c8.52,3.9,17.06,5.95,26.04,1.24
	c1.53-0.8,3.02-2.21,5.06-2.04c0,2.74-1.32,4.86-2.53,6.88c-2.14,3.58-4.34,7.08-8.86,8.44c-5.46,1.64-10.06-0.53-14.72-2.59
	c-2.47-1.09-4.85-2.36-7.49-3.09c-0.34,0.92,0.15,1.48,0.47,2.09c3.58,6.76,9.57,9.84,16.83,10.41
	c12.12,0.97,22.16-3.91,30.94-11.84c0.87-0.79,1.37-1.73,0.88-3.12c-2.55-7.23-2.73-14.83-2.83-22.35
	c-0.13-10.62,1.06-21.17,3.28-31.56c2.26-10.57,5.86-20.69,10.96-30.24c5.09-9.54,11.81-17.85,19.21-25.7
	c12.14-12.89,25.55-23.7,42.89-28.9c8.07-2.42,16-5.36,24.34-6.66c13.49-2.11,26.84-4.83,39.9-8.81c4.25-1.3,8.27-3.64,10.17-7.78
	c3.25-7.06-0.44-19.11-6.88-23.98c-0.58,1.12-1.07,2.24-1.51,3.42c-1.25,3.43-2.24,7.06-5.25,9.5c-0.97,0.79-2.02,2.58-3.3,1.55
	c-1.23-0.99-0.19-2.69,0.45-3.95c2.13-4.22,3.48-8.69,3.91-13.36c0.76-8.29-3.96-15.82-13-19.05c-0.16,1.69,0.93,2.85,1.7,4.1
	c2.68,4.35,3.42,8.93,2.2,13.95c-1.41,5.79-3.48,11.3-6.41,16.46c-1.38,2.43-2.53,5.06-5.11,7.42c0-1.67-0.07-2.8,0.01-3.93
	c0.42-5.73,0.84-11.47,1.32-17.2c0.53-6.26,0.13-12.37-2.65-18.13c-0.38-0.79-0.85-1.85-1.76-1.78c-0.85,0.06-0.88,1.23-1.06,1.98
	c-0.9,3.63-0.76,7.35-0.49,11.01c0.6,8.04-0.88,15.51-5.1,22.45c-5.06,8.32-11.37,15.37-19.91,20.23
	c-5.13,2.92-10.89,4.06-16.48,5.65c-1.55,0.44-2.2-0.15-2.81-1.56c-5.09-11.95-12.64-22.01-23.32-29.54
	C442.27,439.57,440.54,437.85,438.06,437.67z M571.73,492.95c1.11,1.24,2.14,2.19,3.33,2.99c5.38,3.62,11.47,5.39,17.65,6.98
	c7.92,2.04,15.87,3.78,24.11,3.82c11.13,0.05,22.27-0.17,33.28,2.13c8.77,1.83,17.55,3.52,25.21,8.61c3.49,2.32,6.45,5.06,8.52,8.73
	c3.45,6.14,2.76,12.75,1.74,19.19c-1.75,11.03-6.52,20.99-12.06,30.59c-4.93,8.54-10.87,16.42-16.22,24.69
	c-9.07,14.01-17.11,28.56-23.9,43.81c-3.68,8.25-7.13,16.48-4.79,25.9c1.99,7.97,4.94,15.38,11.41,20.78
	c8.21,6.85,17.54,11.78,27.72,15.01c5.34,1.7,10.84,2.54,16.45,1.36c0.68-0.14,1.66-0.1,1.84-0.88c0.21-0.92-0.86-1.03-1.43-1.33
	c-4.21-2.18-8.44-4.33-12.69-6.44c-8.74-4.33-15.47-10.93-20.56-19.09c-4.5-7.21-5.95-15.38-6.79-23.81
	c-1.16-11.64,0.8-22.44,6.36-32.71c5.04-9.31,12-17.12,19.09-24.8c7.48-8.09,15.27-15.89,22.91-23.84c0.72-0.75,1.62-1.42,1.64-2.65
	c0.03-2.24,0.18-4.48,0.16-6.72c-0.08-7.16-2.29-13.98-3.42-20.97c-2.33-14.42-4.67-28.84-8.65-42.95
	c-2.23-7.9-8.59-13.52-16.88-14.2c-5.43-0.44-10.74,0.63-16.03,1.64c-12.16,2.32-24.11,5.74-36.37,7.56
	c-10.35,1.54-20.72,2.39-31.02-0.46C578.88,494.95,575.55,493.56,571.73,492.95z M606.99,508.25c1.03,1.11,1.57,1.82,2.23,2.37
	c3.5,2.9,7.05,5.74,10.55,8.65c12.06,10.01,19.3,23.19,23.87,37.83c4.59,14.69,2.72,29.57-1.86,43.76
	c-4.62,14.3-11.52,27.76-19.18,40.76c-5.45,9.26-12.32,17.55-17.95,26.69c-7.87,12.77-11.72,26.32-8.34,41.28
	c2.01,8.91,5.94,17.01,11.19,24.57c1.25-0.99,1.3-2.31,1.59-3.47c4.18-16.74,6.88-33.77,9.61-50.77c2.76-17.2,7.18-33.8,15.14-49.36
	c7.68-15,13.29-30.74,17.23-47.12c3.37-14.04,6.61-28.12,10.82-41.95c0.49-1.61,0.26-3.03-0.72-4.57
	c-5.9-9.22-13.87-15.95-23.74-20.62C627.95,511.83,617.52,511.2,606.99,508.25z M682.57,694.63c-1.4-5.6,0.21-10.8,1.65-16.06
	c4.56-16.71,9-33.45,13.57-50.16c4.85-17.75,9.23-35.61,13.57-53.49c2.37-9.77,5.77-19.27,7.47-29.2c0.52-3.03,1.19-6.08,0.85-9.39
	c-1.26,0.69-1.67,1.72-2.13,2.64c-4.02,8.21-8.97,15.83-14.12,23.38c-6.87,10.07-11.72,21.33-17.39,32.1
	c-6.6,12.54-10.21,26.14-12.62,40.07c-2.02,11.67-2.74,23.37-1.04,35.13C673.69,678.72,676.39,687.28,682.57,694.63z M551.4,569.32
	c6.02,3.48,11.87,7.07,18.45,9.28c7.36,2.48,14.84,2.97,22.31,1.26c7.42-1.7,14.05-5.37,19.79-10.37c2.87-2.5,5.61-2.32,8.65-0.79
	c1.12,0.56,2.23,1.16,3.34,1.74c-3.81-7.57-7.89-14.67-14.54-19.96c-9.9-7.89-21.12-11.52-33.46-8.83
	c-16.05,3.49-26.01,14.45-32.32,29.09c0.53-0.18,0.96-0.49,1.32-0.85c0.99-0.98,2.29-1.69,3.53-1.59c1.32,0.11,0.82,1.75,1.21,2.67
	c0.2,0.47,0.55,0.94,0.94,1.27c7.84,6.76,16.15,12.83,26.17,15.95c6.5,2.02,13.11,3.89,19.83,0.42c3.02-1.56,6.02-3.15,8.68-5.27
	c4.13-3.28,7.81-6.97,10.33-12.42c-0.84,0.5-1.24,0.66-1.53,0.93c-3.07,2.87-5.97,5.93-9.21,8.59c-8.05,6.61-17.23,7.23-26.94,4.67
	c-9.43-2.49-17.38-7.9-25.54-12.89C551.39,571.58,550.95,570.71,551.4,569.32z M423.2,581.6c3.59-1.04,6.17-2.86,8.95-4.25
	c1.18-0.59,2.09-0.61,3.27-0.14c5.82,2.3,11.64,4.62,17.53,6.72c8.35,2.98,16.85,4.03,25.19,0.15c8.8-4.09,16.6-9.81,24.25-15.72
	c1.35-1.04,1.24-1.91,0.36-3.13c-1.66-2.32-3.3-4.66-4.83-7.07c-6.44-10.16-15.71-15.32-27.67-15.81
	c-8.46-0.34-16.39,1.57-23.77,5.69c-8.18,4.56-14.63,10.87-17.23,20C427.9,572.75,426.12,577.07,423.2,581.6z M702.81,551.27
	c3.91-6.18,7.15-12.42,9.93-18.92c2.83-6.63,5.02-13.34,4.81-20.77c-0.34-12.63-7.37-23.2-19.3-27.36
	c-12.38-4.31-25.32-6.53-38.05-9.51c-0.89-0.21-1.93-0.29-2.15,0.94c-0.25,1.44,1.01,1.5,1.9,1.73
	c10.34,2.65,20.39,6.06,29.51,11.77c5.97,3.74,11.39,7.91,14.18,14.81c1.81,4.48,2.8,9.11,3.15,13.83
	c0.51,6.87,1.17,13.75-1.14,20.55C704.27,542.41,702.42,546.47,702.81,551.27z M508.76,535.54c-1.57-1.69-3.21-2.34-4.9-2.87
	c-4.39-1.39-8.9-1.97-13.49-2.25c-18-1.07-35.88-0.71-53.37,4.37c-2.87,0.83-5.42,2.18-7.53,4.33
	C455.66,534.77,481.86,532.64,508.76,535.54z M437.33,581.87c-0.04,0.93,0.42,1.35,0.9,1.76c6.28,5.45,12.98,10.29,20.71,13.52
	c9.55,3.99,18.56,3.19,26.84-3.27c7.28-5.68,12.67-13.07,18.33-20.21c0.6-0.76,0.55-1.65-0.16-2.14c-0.81-0.55-1.2,0.43-1.65,0.91
	c-4.85,5.12-9.25,10.67-14.84,15.06c-5.56,4.38-11.61,7.45-18.93,7.16c-7.31-0.29-13.66-3.2-19.84-6.86
	C445.04,585.65,441.58,583.05,437.33,581.87z M424.6,425.3c4.52,0.33,8.95,0.87,13.25,2.12c6.43,1.87,12.03,5.42,17.79,8.7
	c3.22,1.84,5.68,4.27,7.58,7.36c0.84,1.37,1.5,2.89,2.52,4.11c1.37,1.65,2.1,4.08,4.74,4.62
	C469.44,430.24,439.09,418.39,424.6,425.3z"/>
<path class="st1" d="M770.5,559.64c-0.19-1.76-0.5-3.32-0.49-4.87c0.08-9.23-1.4-18.28-3.43-27.21
	c-4.34-19.16-11.57-37.13-24.04-52.53c-10.79-13.32-24.37-22.65-41.35-26.41c-6.41-1.42-12.85-0.97-19.24,0.19
	c-11.71,2.13-22.71,6.5-33.72,10.81c-9.68,3.8-19.38,7.58-29.59,9.7c-10.64,2.21-21.16,2.44-30.37-4.62
	c-8.93-6.85-16.43-15.13-20.68-25.6c-5.33-13.11-2.05-24.79,10.14-33.86c10.57-7.87,22.93-10.72,35.78-11.94
	c15.49-1.48,30.68,0.5,45.61,4.49c12.33,3.3,24.03,8.24,35.16,14.5c14.29,8.05,27.29,17.88,38.49,29.84
	c11.86,12.67,23.51,25.59,31.82,41.03c10.86,20.18,15.11,41.46,10.19,64.19c-0.69,3.17-1.55,6.27-2.48,9.36
	C771.98,557.73,771.79,558.8,770.5,559.64z M699.69,433.33c-5.29-2.1-9.89-4.73-15.46-4.38c-2.59,0.17-5.22,0.01-7.8-0.23
	c-10.45-0.96-20.88-2.32-31.35-2.95c-10.6-0.64-20.74-2.33-30.22-7.54c-9.17-5.03-18.18-2.63-26.63,2.14
	c-5.47,3.08-4.25,7.21-0.98,10.43c5,4.92,11.02,8.61,17.63,11.08c7.32,2.74,14.93,1.88,22.38,0.75c16.05-2.44,31.74-6.88,47.92-8.7
	C683.16,433.05,691.12,433.27,699.69,433.33z"/>
<path class="st3" d="M621.65,260.33c0-14.84,0.08-29.69-0.07-44.53c-0.03-2.8,0.87-3.47,3.51-3.46c18.89,0.09,37.78,0.07,56.67,0.02
	c1.99,0,3.08,0.25,3.07,2.74c-0.08,29.86-0.09,59.73,0.01,89.59c0.01,2.75-0.74,3.52-3.45,3.44c-6.11-0.2-12.23-0.17-18.35-0.01
	c-2.51,0.07-3.14-0.76-3.13-3.2c0.09-23.39,0.06-46.78,0.07-70.16c0-3.94,0-3.93-4.04-3.91c-2.07,0.01-4.15,0.15-6.2-0.02
	c-2.66-0.23-3.56,0.66-3.54,3.46c0.11,17.09,0.03,34.18,0.03,51.27c0,6.57-0.02,13.13,0.06,19.7c0.03,2.12-0.24,3.11-2.93,2.99
	c-6.18-0.26-12.4-0.35-18.59,0.22c-2.39,0.22-3.14-0.77-3.13-3.08c0.07-15.02,0.03-30.04,0.03-45.07
	C621.66,260.33,621.65,260.33,621.65,260.33z"/>
<path class="st3" d="M312.74,305.25c0,4.32-0.08,8.63,0.04,12.95c0.06,2.01-0.41,2.96-2.66,2.91c-5.57-0.13-11.15-0.11-16.72-0.01
	c-2.04,0.03-2.69-0.69-2.48-2.7c0.28-2.77,0.32-5.56,0.48-8.33c0.08-1.51-0.6-2.02-2.1-2.01c-7.91,0.05-15.82,0.05-23.74,0
	c-1.8-0.01-2.3,0.6-2.09,2.43c0.31,2.76,0.21,5.57,0.37,8.35c0.08,1.41-0.25,2.25-1.86,2.24c-5.93-0.04-11.87-0.05-17.8-0.03
	c-1.44,0-1.85-0.74-1.85-2.03c0.03-9.08,0.07-18.16,0.01-27.24c-0.01-1.96,1-2.37,2.52-2.1c2.46,0.43,3.27-0.83,3.68-2.99
	c3.99-20.71,8.03-41.41,12.06-62.11c0.67-3.44,1.42-6.86,2.03-10.31c0.23-1.32,0.84-1.84,2.14-1.84c8.9-0.02,17.8-0.07,26.7-0.13
	c1.64-0.01,2.1,1.02,2.34,2.38c1.48,8.39,2.97,16.78,4.47,25.17c2,11.22,4.03,22.44,6.02,33.66c0.79,4.42,1.6,8.83,2.27,13.27
	c0.32,2.13,1.13,3.3,3.49,2.89c2.07-0.36,2.85,0.5,2.77,2.66c-0.15,4.31-0.04,8.63-0.04,12.94
	C312.76,305.25,312.75,305.25,312.74,305.25z M277.84,241.4c-0.13,0-0.27,0-0.4,0.01c-1.11,8.15-2.24,16.31-3.33,24.47
	c-0.96,7.2-1.84,14.42-2.86,21.61c-0.24,1.71,0.24,2.26,1.93,2.18c2.15-0.1,4.31-0.04,6.47-0.04c3.86-0.01,3.85-0.01,3.4-3.93
	c-1.03-8.92-2.05-17.83-3.1-26.75C279.26,253.1,278.54,247.25,277.84,241.4z"/>
<path class="st3" d="M542.26,260.04c0-7.64-0.09-15.29,0.03-22.93c0.1-6.98,2.19-13.27,7.4-18.18c4.93-4.65,10.96-7.17,17.59-7.78
	c8.47-0.78,16.84-0.41,24.65,3.84c7.73,4.2,12.21,10.62,12.97,19.2c1.05,11.92,0.28,23.9,0.37,35.86c0.04,4.94,0.3,9.88-0.17,14.82
	c-1.08,11.29-7.28,18.8-17.62,22.6c-10.06,3.69-20.44,3.41-30.26-0.87c-9.83-4.28-14.49-12.56-14.9-23.08
	C542.02,275.69,542.26,267.86,542.26,260.04z M566.74,260.32c0,0-0.01,0-0.01,0c0,7.9-0.02,15.81,0.02,23.71
	c0.01,1.25,0.1,2.53,0.4,3.73c0.76,3.05,2.99,4.65,6.32,4.74c3.66,0.1,5.4-1.02,6.41-4.34c0.36-1.19,0.58-2.47,0.59-3.71
	c0.05-16.43,0.11-32.87,0.02-49.3c-0.03-4.94-2.66-7.2-7.49-7c-4.05,0.16-6.17,2.36-6.22,6.85
	C566.68,243.44,566.74,251.88,566.74,260.32z"/>
<path class="st3" d="M701.23,259.81c0-7.1,0.03-14.21-0.01-21.31c-0.1-16.49,10.53-26.07,26.1-27.46c7.75-0.69,15.36-0.11,22.6,3.45
	c9.28,4.57,13.9,12.18,14.15,22.1c0.39,15.82,0.43,31.66-0.02,47.48c-0.31,10.85-6.28,18.63-16.2,22.78
	c-9.55,3.99-19.5,3.69-29.31,0.64c-11.04-3.44-17.36-14.28-17.31-24.74C701.26,275.1,701.23,267.45,701.23,259.81z M725.75,259.91
	c0,8.45-0.04,16.9,0.02,25.35c0.03,3.71,1.43,5.89,4.14,6.87c5.5,1.99,9.57-1.09,9.63-7.8c0.16-16.36,0.13-32.72,0.04-49.08
	c-0.03-4.88-2.61-7.24-7.18-7.13c-4.52,0.1-6.62,2.34-6.64,7.26C725.72,243.55,725.75,251.73,725.75,259.91z"/>
<path class="st3" d="M329.26,269.29c0-11.78-0.09-23.57,0.06-35.35c0.03-2.7-0.88-3.45-3.38-3.29c-2.78,0.17-5.58,0.01-8.36,0.1
	c-1.6,0.05-2.3-0.54-2.22-2.18c0.21-4.67,0.4-9.34,0.51-14.01c0.04-1.64,0.72-2.16,2.31-2.15c11.06,0.03,22.13,0.02,33.19-0.06
	c2.29-0.02,2.33,1.33,2.33,2.99c-0.03,9.71,0.05,19.43-0.08,29.14c-0.03,2.53,0.6,3.45,3.3,3.36c5.84-0.21,11.64,0.21,17.36,1.75
	c9.53,2.57,15.55,8.56,17.22,18.23c1.33,7.72,1.54,15.58-1.06,23.2c-3.03,8.87-9.52,13.77-18.38,15.98c-4.51,1.12-9.07,1.05-13.66,1
	c-8.54-0.08-17.09-0.02-25.64-0.02c-3.5,0-3.51-0.01-3.51-3.62c0-11.69,0-23.39,0-35.08C329.25,269.29,329.26,269.29,329.26,269.29z
	 M353.56,277.87c-0.01,0-0.01,0-0.02,0c0,3.87-0.01,7.73,0.01,11.6c0,0.88-0.1,1.79,1.08,2.18c5.51,1.8,11.85-1.89,12.7-7.6
	c0.54-3.64,0.66-7.35,0.13-11.02c-0.9-6.28-3.49-8.49-9.88-8.64c-0.63-0.01-1.26,0.04-1.89-0.02c-1.63-0.15-2.21,0.54-2.17,2.18
	C353.63,270.31,353.56,274.09,353.56,277.87z"/>
<path class="st3" d="M433.65,241.54c-0.88,7.48-1.76,14.97-2.65,22.45c-1.64,13.81-3.31,27.62-4.93,41.43
	c-0.2,1.7-0.88,2.56-2.72,2.54c-6.39-0.05-12.77-0.02-19.16,0.01c-2.13,0.01-2.55-1.02-2.19-2.94c2.86-15.08,5.65-30.17,8.49-45.26
	c2.83-15.06,5.7-30.12,8.49-45.19c0.31-1.7,1.12-2.2,2.73-2.19c8.54,0.05,17.09,0.05,25.63,0.02c1.69-0.01,2.6,0.48,2.91,2.33
	c2.4,14.49,4.92,28.95,7.35,43.43c2.01,11.94,3.95,23.88,5.94,35.82c0.65,3.89,1.36,7.76,2.05,11.64c0.28,1.57,0.05,2.48-1.96,2.45
	c-6.92-0.11-13.85-0.06-20.77-0.02c-1.42,0.01-2.03-0.37-2.18-1.93c-1.71-17.53-3.5-35.05-5.29-52.57
	c-0.41-4.02-0.9-8.04-1.35-12.05C433.91,241.53,433.78,241.54,433.65,241.54z"/>
<path class="st3" d="M808.6,240.75c-0.57,4.07-1.11,7.52-1.52,10.97c-2.13,17.74-4.27,35.48-6.29,53.23
	c-0.27,2.32-1.01,3.18-3.46,3.1c-6.02-0.18-12.05-0.09-18.08-0.04c-2.17,0.02-3.01-0.55-2.53-3.02c2.88-14.81,5.57-29.65,8.36-44.48
	c1.99-10.58,4.04-21.14,6.04-31.71c0.87-4.58,1.79-9.16,2.49-13.77c0.29-1.87,1.01-2.64,2.91-2.63c8.54,0.05,17.08,0.01,25.62-0.01
	c1.53,0,2.18,0.73,2.44,2.24c1.35,8.06,2.8,16.11,4.19,24.16c3.33,19.38,6.65,38.75,9.98,58.13c0.47,2.74,0.92,5.49,1.45,8.22
	c0.37,1.94-0.27,2.87-2.33,2.86c-6.66-0.03-13.31-0.03-19.97,0.01c-1.99,0.01-2.5-1.01-2.68-2.85c-2.03-20.93-4.15-41.85-6.25-62.77
	C808.94,242.04,808.83,241.7,808.6,240.75z"/>
<path class="st3" d="M477.89,260.15c0-14.47-0.03-28.95,0.02-43.42c0.01-4.85-0.49-4.43,4.57-4.43c14.38-0.02,28.77,0.02,43.15-0.06
	c2.33-0.01,3.42,0.52,3.37,3.14c-0.09,4.31,0.15,8.63,0.35,12.94c0.09,1.92-0.43,2.67-2.56,2.64c-7.19-0.11-14.38,0.09-21.57,0.03
	c-2.21-0.02-2.89,0.71-2.89,2.95c0.07,23.56,0.05,47.11,0.04,70.67c0,3.48-0.01,3.48-3.54,3.47c-6.02-0.01-12.05-0.09-18.07,0.05
	c-2.26,0.05-2.91-0.72-2.9-2.91C477.93,290.18,477.89,275.17,477.89,260.15z"/>
<path class="st0" d="M438.06,437.67c2.48,0.19,4.21,1.9,6.06,3.21c10.68,7.53,18.23,17.59,23.32,29.54c0.6,1.42,1.26,2,2.81,1.56
	c5.6-1.59,11.35-2.73,16.48-5.65c8.54-4.86,14.85-11.91,19.91-20.23c4.22-6.94,5.7-14.4,5.1-22.45c-0.27-3.66-0.41-7.38,0.49-11.01
	c0.18-0.75,0.22-1.91,1.06-1.98c0.91-0.07,1.37,0.99,1.76,1.78c2.78,5.76,3.18,11.87,2.65,18.13c-0.49,5.73-0.91,11.46-1.32,17.2
	c-0.08,1.13-0.01,2.26-0.01,3.93c2.58-2.37,3.74-5,5.11-7.42c2.93-5.16,5-10.67,6.41-16.46c1.22-5.02,0.48-9.6-2.2-13.95
	c-0.77-1.26-1.86-2.41-1.7-4.1c9.05,3.23,13.77,10.76,13,19.05c-0.43,4.67-1.78,9.14-3.91,13.36c-0.64,1.26-1.68,2.96-0.45,3.95
	c1.28,1.03,2.33-0.76,3.3-1.55c3.01-2.44,4-6.07,5.25-9.5c0.43-1.19,0.92-2.31,1.51-3.42c6.44,4.87,10.13,16.92,6.88,23.98
	c-1.9,4.13-5.92,6.48-10.17,7.78c-13.06,3.98-26.41,6.7-39.9,8.81c-8.34,1.31-16.28,4.24-24.34,6.66
	c-17.34,5.2-30.75,16.01-42.89,28.9c-7.4,7.86-14.12,16.16-19.21,25.7c-5.1,9.55-8.7,19.67-10.96,30.24
	c-2.22,10.39-3.42,20.94-3.28,31.56c0.09,7.52,0.28,15.12,2.83,22.35c0.49,1.39-0.01,2.33-0.88,3.12
	c-8.78,7.93-18.83,12.81-30.94,11.84c-7.26-0.58-13.25-3.66-16.83-10.41c-0.32-0.61-0.81-1.17-0.47-2.09c2.64,0.73,5.02,2,7.49,3.09
	c4.66,2.06,9.25,4.23,14.72,2.59c4.53-1.36,6.72-4.86,8.86-8.44c1.21-2.02,2.53-4.15,2.53-6.88c-2.04-0.17-3.53,1.24-5.06,2.04
	c-8.98,4.71-17.52,2.66-26.04-1.24c-4-1.83-7.95-3.71-11.4-6.5c-1.27-1.03-2.45-2.1-3.13-3.82c3.2,0.6,5.89,2.14,8.6,3.6
	c8.06,4.33,15.97,4.09,24.13,0c9.68-4.86,13.91-12.92,14.77-23.23c0.24-2.86,0.16-5.76,0.53-8.61c0.32-2.54-0.78-3.86-2.83-5.12
	c-12.62-7.72-25.35-15.23-38.97-21.11c-1.26-0.54-2.28-1.35-3.27-3.04c16.58-1.7,33.04-5.21,46.62,8.77
	c-0.31-9.33-5.58-18.69-13.94-21.06c-4.96-1.41-9.98-0.81-14.99-0.36c-1.88,0.17-3.74,0.45-5.62,0.59c-1,0.07-2.34-0.08-2.53-1.08
	c-0.21-1.11,1.23-1.37,2.05-1.71c7.04-2.98,14.31-5.24,21.87-6.45c6.23-1,12.47-1.6,18.61,0.62c2.66,0.96,4.82,2.65,6.91,4.95
	c4.23-12.61,3.45-23.99-5.62-33.96c-4.09-4.49-8.3-8.86-12.44-13.29c-0.35-0.38-0.65-0.81-1.22-1.54c2.87,0.04,4.85,1.47,6.87,2.53
	c9.02,4.77,17.8,9.93,26.16,15.8c0.62,0.44,1.21,1.36,2.08,0.94c0.85-0.41,0.56-1.45,0.57-2.2c0.04-2.6,0.04-5.2-0.08-7.79
	c-0.34-7.45-4.3-12.42-10.69-15.88c-8.08-4.38-16.45-7.13-25.79-5.66c-0.67,0.11-1.78,0.69-2.06-0.48
	c-0.27-1.16,0.76-1.48,1.66-1.71c13.65-3.39,26.36-1.8,38.29,6.26c5.97,4.04,8.13,9.14,7.53,15.99c-0.28,3.26,0.57,3.84,3.47,2.39
	c8.5-4.25,13.53-11.11,15.29-20.49c2.2-11.71-1.62-21.72-8.35-30.98L438.06,437.67z"/>
<path class="st0" d="M542.82,731.22c0.52,2.63,1.19,5.24,1.53,7.89c0.79,6.11-1.44,11.68-3.41,17.27c-0.7,1.98-1.4,0.51-1.92-0.23
	c-3.01-4.34-6.12-8.6-9.65-12.54c-7.26-8.12-14.99-15.64-24.99-20.41c-2.17-1.03-3.63-1.07-5.19,1.17
	c-4.41,6.34-9.44,12.14-16.02,16.41c-1.76,1.14-3.64,1.95-5.6,2.59c-1.68,0.55-2.29,0.18-1.68-1.76c2.17-6.83,2.29-13.76,0.6-20.72
	c-0.25-1.04-0.4-2.11-1.6-2.98c-1.63,3.87-3.15,7.67-4.84,11.41c-2.32,5.13-4.74,10.2-7.18,15.27c-0.35,0.74-0.76,1.96-1.85,1.59
	c-1.27-0.43-0.67-1.69-0.49-2.54c2.93-13.74-0.94-25.64-9.47-36.43c-3.17-4.01-6.62-7.74-10.23-11.34
	c-3.02-3.01-3.13-3.04-4.96,0.71c-2.46,5.01-6.77,7.96-11.36,10.65c-0.59,0.35-1.35,0.41-2.82,0.82c3.64-8.41,5.88-16.5,1.47-25.18
	c-1.48,4.67-2.82,9.02-4.86,13.12c-5.01,10.1-12.6,16.6-24.17,17.74c-4.23,0.42-12.31-0.72-14.86-2.2
	c5.57-1.97,11.17-3.49,16.39-6.14c9.88-5.02,15.44-12.77,15.81-24c0.02-0.71,0-1.41,0-2.38c-2,0.58-2.93,2.08-3.95,3.29
	c-7.32,8.6-16.78,12.54-27.86,13.03c-0.81,0.04-1.99,0.49-2.39-0.59c-0.37-1,0.73-1.52,1.27-2.2c5.07-6.43,11.19-11.87,16.9-17.68
	c5.54-5.63,6.45-12.19,5.79-19.53c-0.68-7.52-1.9-14.95-2.85-22.43c-0.53-4.19,2.04-7.39,4.12-11.51
	c3.57,19.88,15.07,34.55,27.02,48.87c12.83,15.37,29,26.21,47.55,33.57c10.83,4.3,22.18,6.41,33.68,8
	c15.78,2.19,31.6,3.51,47.54,3.17c1.79-0.04,2.54,0.68,2.87,2.38c1.06,5.47,0.22,10.74-1.53,15.9c-1.12,3.32-2.73,6.41-4.93,9.19
	c-1.13,1.43-1.8,1.42-2.74-0.14c-2.02-3.38-4.15-6.7-6.83-9.6c-0.63-0.68-1.12-1.72-2.36-1.51c-0.03-0.18-0.06-0.35-0.09-0.53
	c-0.08,0.04-0.15,0.08-0.23,0.12C542.6,730.96,542.71,731.09,542.82,731.22z"/>
<path class="st0" d="M571.73,492.95c3.82,0.61,7.15,2,10.6,2.95c10.3,2.84,20.67,2,31.02,0.46c12.26-1.82,24.21-5.24,36.37-7.56
	c5.29-1.01,10.6-2.08,16.03-1.64c8.29,0.68,14.64,6.3,16.88,14.2c3.98,14.1,6.32,28.52,8.65,42.95c1.13,6.99,3.34,13.81,3.42,20.97
	c0.03,2.24-0.13,4.48-0.16,6.72c-0.01,1.24-0.92,1.9-1.64,2.65c-7.64,7.95-15.43,15.75-22.91,23.84
	c-7.09,7.68-14.06,15.49-19.09,24.8c-5.55,10.26-7.52,21.06-6.36,32.71c0.84,8.43,2.3,16.59,6.79,23.81
	c5.09,8.16,11.82,14.75,20.56,19.09c4.25,2.11,8.47,4.26,12.69,6.44c0.58,0.3,1.64,0.4,1.43,1.33c-0.18,0.78-1.16,0.73-1.84,0.88
	c-5.61,1.18-11.11,0.34-16.45-1.36c-10.18-3.23-19.51-8.16-27.72-15.01c-6.47-5.4-9.43-12.81-11.41-20.78
	c-2.35-9.42,1.11-17.64,4.79-25.9c6.79-15.25,14.83-29.79,23.9-43.81c5.35-8.27,11.29-16.14,16.22-24.69
	c5.54-9.61,10.31-19.56,12.06-30.59c1.02-6.44,1.71-13.06-1.74-19.19c-2.06-3.67-5.03-6.41-8.52-8.73
	c-7.66-5.09-16.43-6.78-25.21-8.61c-11.01-2.3-22.15-2.08-33.28-2.13c-8.24-0.04-16.19-1.78-24.11-3.82
	c-6.18-1.59-12.28-3.36-17.65-6.98C573.87,495.14,572.84,494.19,571.73,492.95z"/>
<path class="st0" d="M606.99,508.25c10.53,2.95,20.96,3.57,30.44,8.06c9.88,4.67,17.84,11.4,23.74,20.62
	c0.98,1.54,1.21,2.96,0.72,4.57c-4.21,13.83-7.45,27.91-10.82,41.95c-3.93,16.38-9.55,32.12-17.23,47.12
	c-7.97,15.56-12.38,32.15-15.14,49.36c-2.73,17-5.43,34.04-9.61,50.77c-0.29,1.16-0.34,2.48-1.59,3.47
	c-5.25-7.56-9.18-15.66-11.19-24.57c-3.38-14.96,0.47-28.52,8.34-41.28c5.63-9.14,12.5-17.43,17.95-26.69
	c7.66-13,14.56-26.46,19.18-40.76c4.58-14.19,6.45-29.08,1.86-43.76c-4.57-14.64-11.81-27.81-23.87-37.83
	c-3.5-2.91-7.05-5.75-10.55-8.65C608.56,510.07,608.02,509.36,606.99,508.25z"/>
<path class="st0" d="M682.57,694.63c-6.18-7.35-8.87-15.91-10.18-24.98c-1.7-11.76-0.98-23.46,1.04-35.13
	c2.41-13.93,6.01-27.53,12.62-40.07c5.67-10.77,10.52-22.02,17.39-32.1c5.15-7.55,10.09-15.17,14.12-23.38
	c0.45-0.92,0.86-1.96,2.13-2.64c0.34,3.3-0.33,6.36-0.85,9.39c-1.7,9.93-5.1,19.43-7.47,29.2c-4.33,17.88-8.71,35.75-13.57,53.49
	c-4.57,16.71-9.01,33.45-13.57,50.16C682.78,683.83,681.16,689.04,682.57,694.63z"/>
<path class="st0" d="M551.4,569.32c-0.46,1.4-0.01,2.27,1.01,2.89c8.16,5,16.11,10.4,25.54,12.89c9.71,2.57,18.89,1.95,26.94-4.67
	c3.24-2.66,6.14-5.73,9.21-8.59c0.29-0.27,0.69-0.42,1.53-0.93c-2.52,5.45-6.2,9.13-10.33,12.42c-2.66,2.12-5.66,3.71-8.68,5.27
	c-6.72,3.48-13.33,1.6-19.83-0.42c-10.02-3.11-18.33-9.19-26.17-15.95c-0.39-0.34-0.74-0.8-0.94-1.27c-0.4-0.92,0.11-2.56-1.21-2.67
	c-1.24-0.11-2.54,0.6-3.53,1.59c-0.37,0.36-0.79,0.67-1.32,0.85c6.31-14.64,16.27-25.6,32.32-29.09
	c12.35-2.68,23.56,0.94,33.46,8.83c6.64,5.3,10.73,12.4,14.54,19.96c-1.11-0.58-2.22-1.18-3.34-1.74c-3.04-1.53-5.77-1.71-8.65,0.79
	c-5.75,4.99-12.37,8.67-19.79,10.37c-7.46,1.71-14.94,1.22-22.31-1.26C563.28,576.38,557.43,572.8,551.4,569.32z M615.96,564.6
	c0.28-1.08-0.19-1.43-0.55-1.81c-3.29-3.41-6.39-6.97-10.27-9.82c-9.08-6.67-19.08-8.36-29.85-5.85
	c-8.62,2.01-15.87,6.47-21.78,13.08c-0.79,0.88-2.52,1.73-1.53,2.86c0.66,0.75,2.53,0.07,3.7-0.67c0.38-0.24,0.68-0.59,1.03-0.86
	c15.35-11.51,31.39-12.44,48.1-3.14C608.47,560.43,611.89,562.9,615.96,564.6z M583.08,574.89c4.86,0.01,8.29-3.23,8.36-7.88
	c0.07-4.48-3.66-8.41-8.02-8.44c-4.52-0.04-8.29,3.87-8.23,8.52C575.25,571.41,578.76,574.88,583.08,574.89z M569.82,559.46
	c-4.81,0.06-13.48,4.03-16.02,7.08c-0.77,0.92-0.4,1.41,0.47,1.85c1.43,0.73,2.85,1.47,4.29,2.19c4.33,2.16,8.83,3.92,13.5,5.21
	c0.84,0.23,2,0.52,2.57-0.14c0.68-0.78-0.21-1.6-0.68-2.34c-2.33-3.65-3.05-7.42-0.77-11.38c0.77-1.33,0.19-2.04-1.14-2.27
	C571.16,559.5,570.25,559.49,569.82,559.46z M591.72,575.5c7.62-1.79,14.22-5.18,21.08-9.19c-6.55-4.58-13.49-7.07-21.56-9.41
	C597.21,563.44,595.93,569.41,591.72,575.5z"/>
<path class="st0" d="M423.2,581.6c2.92-4.53,4.71-8.85,6.05-13.57c2.6-9.12,9.06-15.43,17.23-20c7.38-4.12,15.31-6.03,23.77-5.69
	c11.96,0.48,21.23,5.64,27.67,15.81c1.53,2.41,3.17,4.75,4.83,7.07c0.88,1.23,0.98,2.09-0.36,3.13
	c-7.65,5.91-15.45,11.63-24.25,15.72c-8.33,3.88-16.84,2.83-25.19-0.15c-5.89-2.1-11.71-4.42-17.53-6.72
	c-1.19-0.47-2.09-0.45-3.27,0.14C429.37,578.74,426.79,580.56,423.2,581.6z M474.79,580.61c1.05,0.26,1.97-0.24,2.84-0.64
	c5.77-2.65,11.56-5.27,17.01-8.56c3.14-1.9,3.19-2.47,0.08-4.55c-5.62-3.78-12.22-4.07-19.04-5.4c0.9,1.42,1.48,2.42,2.15,3.35
	c1.67,2.33,2.7,4.8,2.37,7.76c-0.4,3.66-3.04,5.75-5.39,8.06c-0.03,0.05-0.06,0.1-0.09,0.15
	C474.75,580.73,474.77,580.67,474.79,580.61z M500.59,566.94c-3.47-8.44-13.42-16.08-23.29-18.14c-22.97-4.8-38.66,7.15-48.48,24.42
	c-0.53,0.93-0.03,1.59,0.46,2.17c0.72,0.86,1.25,0.05,1.75-0.41c0.98-0.91,2.01-1.78,2.92-2.76c6.11-6.62,13.31-11.37,21.97-14.21
	c9.89-3.25,19.49-3.42,29.15,0.61C490.38,560.83,495.16,563.99,500.59,566.94z M460.92,561.4c-0.42,0-0.79-0.09-1.1,0.01
	c-7.9,2.47-15.24,6.14-22.17,10.61c-2.5,1.62-2.38,2.25,0.3,3.79c4.96,2.86,10.41,4.35,15.96,5.3c2.99,0.51,5.98,1.61,9.29,1.07
	C454.7,575.68,451.8,571.58,460.92,561.4z M467.61,579.16c4.64,0.21,8.54-3.36,8.75-8c0.19-4.2-3.5-8.12-7.85-8.34
	c-4.29-0.22-8.25,3.22-8.42,7.32C459.87,575.11,463.07,578.95,467.61,579.16z"/>
<path class="st0" d="M702.81,551.27c-0.39-4.8,1.47-8.86,2.85-12.93c2.31-6.8,1.65-13.68,1.14-20.55
	c-0.35-4.72-1.34-9.35-3.15-13.83c-2.79-6.9-8.21-11.07-14.18-14.81c-9.12-5.71-19.16-9.11-29.51-11.77
	c-0.89-0.23-2.15-0.29-1.9-1.73c0.22-1.24,1.26-1.15,2.15-0.94c12.73,2.98,25.67,5.2,38.05,9.51c11.94,4.16,18.96,14.73,19.3,27.36
	c0.2,7.42-1.98,14.14-4.81,20.77C709.96,538.84,706.72,545.09,702.81,551.27z"/>
<path class="st0" d="M508.76,535.54c-26.9-2.9-53.1-0.77-79.29,3.58c2.1-2.15,4.66-3.49,7.53-4.33c17.49-5.09,35.37-5.44,53.37-4.37
	c4.59,0.27,9.1,0.85,13.49,2.25C505.55,533.2,507.19,533.85,508.76,535.54z"/>
<path class="st0" d="M437.33,581.87c4.25,1.18,7.72,3.78,11.35,5.93c6.18,3.66,12.54,6.57,19.84,6.86
	c7.32,0.29,13.37-2.78,18.93-7.16c5.58-4.39,9.99-9.95,14.84-15.06c0.45-0.48,0.84-1.45,1.65-0.91c0.71,0.48,0.77,1.38,0.16,2.14
	c-5.66,7.14-11.06,14.53-18.33,20.21c-8.29,6.47-17.3,7.26-26.84,3.27c-7.73-3.23-14.42-8.06-20.71-13.52
	C437.75,583.22,437.29,582.79,437.33,581.87z"/>
<path class="st0" d="M424.6,425.3c14.49-6.91,44.83,4.94,45.88,26.91c-2.65-0.53-3.37-2.96-4.74-4.62
	c-1.02-1.22-1.67-2.74-2.52-4.11c-1.9-3.09-4.36-5.52-7.58-7.36c-5.75-3.28-11.35-6.84-17.79-8.7
	C433.55,426.17,429.12,425.63,424.6,425.3z"/>
<path class="st0" d="M438.1,437.64c-0.09-0.13-0.18-0.27-0.26-0.4c0.08,0.14,0.15,0.29,0.23,0.43
	C438.06,437.67,438.1,437.64,438.1,437.64z"/>
<path class="st0" d="M699.69,433.33c-8.57-0.06-16.54-0.28-24.53,0.61c-16.18,1.82-31.87,6.26-47.92,8.7
	c-7.45,1.13-15.05,1.99-22.38-0.75c-6.61-2.47-12.62-6.16-17.63-11.08c-3.27-3.22-4.49-7.35,0.98-10.43
	c8.45-4.76,17.47-7.17,26.63-2.14c9.48,5.21,19.62,6.9,30.22,7.54c10.47,0.63,20.9,1.98,31.35,2.95c2.59,0.24,5.22,0.39,7.8,0.23
	C689.8,428.6,694.4,431.23,699.69,433.33z"/>
<path class="st1" d="M277.84,241.4c0.71,5.85,1.43,11.7,2.11,17.55c1.04,8.91,2.06,17.83,3.1,26.75c0.45,3.92,0.46,3.92-3.4,3.93
	c-2.16,0-4.32-0.07-6.47,0.04c-1.68,0.08-2.17-0.47-1.93-2.18c1.02-7.19,1.9-14.41,2.86-21.61c1.09-8.16,2.22-16.31,3.33-24.47
	C277.57,241.41,277.7,241.41,277.84,241.4z"/>
<path class="st1" d="M566.74,260.32c0-8.44-0.07-16.88,0.03-25.32c0.05-4.49,2.18-6.69,6.22-6.85c4.82-0.19,7.46,2.06,7.49,7
	c0.09,16.43,0.03,32.87-0.02,49.3c0,1.24-0.23,2.52-0.59,3.71c-1.01,3.32-2.75,4.44-6.41,4.34c-3.34-0.09-5.56-1.69-6.32-4.74
	c-0.3-1.2-0.39-2.48-0.4-3.73c-0.03-7.9-0.02-15.81-0.02-23.71C566.73,260.32,566.74,260.32,566.74,260.32z"/>
<path class="st1" d="M725.75,259.91c0-8.18-0.03-16.36,0.01-24.54c0.02-4.92,2.12-7.15,6.64-7.26c4.57-0.11,7.15,2.25,7.18,7.13
	c0.08,16.36,0.12,32.72-0.04,49.08c-0.06,6.71-4.13,9.79-9.63,7.8c-2.71-0.98-4.11-3.16-4.14-6.87
	C725.71,276.81,725.75,268.36,725.75,259.91z"/>
<path class="st1" d="M353.56,277.87c0-3.78,0.06-7.55-0.03-11.33c-0.04-1.64,0.53-2.34,2.17-2.18c0.62,0.06,1.26,0,1.89,0.02
	c6.39,0.15,8.99,2.36,9.88,8.64c0.52,3.67,0.41,7.37-0.13,11.02c-0.85,5.71-7.19,9.4-12.7,7.6c-1.19-0.39-1.08-1.3-1.08-2.18
	c-0.02-3.87-0.01-7.73-0.01-11.6C353.55,277.87,353.56,277.87,353.56,277.87z"/>
<path class="st1" d="M542.82,731.22c-0.11-0.13-0.22-0.26-0.32-0.4c0.08-0.04,0.15-0.08,0.23-0.12c0.03,0.18,0.06,0.35,0.09,0.53
	C542.81,731.23,542.82,731.22,542.82,731.22z"/>
<path class="st1" d="M615.96,564.6c-4.07-1.7-7.49-4.17-11.14-6.2c-16.71-9.3-32.75-8.37-48.1,3.14c-0.36,0.27-0.66,0.62-1.03,0.86
	c-1.17,0.74-3.04,1.42-3.7,0.67c-1-1.13,0.74-1.98,1.53-2.86c5.91-6.61,13.16-11.07,21.78-13.08c10.77-2.51,20.77-0.82,29.85,5.85
	c3.88,2.85,6.98,6.41,10.27,9.82C615.77,563.17,616.23,563.51,615.96,564.6z"/>
<path class="st1" d="M583.08,574.89c-4.32-0.01-7.83-3.48-7.89-7.8c-0.06-4.66,3.71-8.56,8.23-8.52c4.35,0.04,8.08,3.96,8.02,8.44
	C591.37,571.66,587.94,574.9,583.08,574.89z"/>
<path class="st1" d="M569.82,559.46c0.44,0.04,1.34,0.04,2.22,0.19c1.33,0.23,1.91,0.94,1.14,2.27c-2.29,3.96-1.57,7.73,0.77,11.38
	c0.47,0.73,1.35,1.55,0.68,2.34c-0.58,0.67-1.73,0.37-2.57,0.14c-4.67-1.28-9.16-3.04-13.5-5.21c-1.44-0.72-2.86-1.46-4.29-2.19
	c-0.87-0.44-1.23-0.94-0.47-1.85C556.34,563.49,565.01,559.51,569.82,559.46z"/>
<path class="st1" d="M591.72,575.5c4.21-6.09,5.49-12.07-0.48-18.6c8.07,2.34,15.01,4.82,21.56,9.41
	C605.94,570.32,599.34,573.71,591.72,575.5z"/>
<path class="st1" d="M500.59,566.94c-5.43-2.95-10.21-6.12-15.52-8.33c-9.66-4.03-19.26-3.86-29.15-0.61
	c-8.65,2.84-15.86,7.59-21.97,14.21c-0.91,0.98-1.94,1.85-2.92,2.76c-0.5,0.47-1.03,1.27-1.75,0.41c-0.48-0.58-0.99-1.24-0.46-2.17
	c9.82-17.27,25.51-29.22,48.48-24.42C487.17,550.86,497.11,558.5,500.59,566.94z"/>
<path class="st1" d="M460.92,561.4c-9.13,10.19-6.22,14.29,2.27,20.78c-3.3,0.54-6.3-0.56-9.29-1.07c-5.56-0.94-11-2.44-15.96-5.3
	c-2.68-1.54-2.8-2.18-0.3-3.79c6.94-4.47,14.27-8.15,22.17-10.61C460.14,561.31,460.51,561.4,460.92,561.4z"/>
<path class="st1" d="M467.61,579.16c-4.54-0.21-7.74-4.05-7.52-9.03c0.18-4.1,4.13-7.53,8.42-7.32c4.35,0.22,8.04,4.14,7.85,8.34
	C476.15,575.79,472.24,579.37,467.61,579.16z"/>
<path class="st1" d="M474.82,580.64c2.35-2.31,4.99-4.4,5.39-8.06c0.32-2.97-0.71-5.43-2.37-7.76c-0.67-0.93-1.24-1.93-2.15-3.35
	c6.82,1.33,13.42,1.61,19.04,5.4c3.1,2.09,3.06,2.66-0.08,4.55c-5.45,3.29-11.24,5.91-17.01,8.56c-0.87,0.4-1.79,0.9-2.84,0.64
	L474.82,580.64z"/>
<path class="st1" d="M474.79,580.61c-0.02,0.06-0.04,0.12-0.06,0.17c0.03-0.05,0.06-0.1,0.09-0.15
	C474.82,580.64,474.79,580.61,474.79,580.61z"/>
</svg>
