<?xml version="1.0" encoding="UTF-8" standalone="no"?>
<!-- Created with Inkscape (http://www.inkscape.org/) -->

<svg
   version="1.1"
   id="svg2"
   width="566.66669"
   height="734.66669"
   viewBox="0 0 566.66669 734.66669"
   sodipodi:docname="provadia-logo.eps"
   xmlns:inkscape="http://www.inkscape.org/namespaces/inkscape"
   xmlns:sodipodi="http://sodipodi.sourceforge.net/DTD/sodipodi-0.dtd"
   xmlns="http://www.w3.org/2000/svg"
   xmlns:svg="http://www.w3.org/2000/svg">
  <defs
     id="defs6" />
  <sodipodi:namedview
     id="namedview4"
     pagecolor="#ffffff"
     bordercolor="#000000"
     borderopacity="0.25"
     inkscape:showpageshadow="2"
     inkscape:pageopacity="0.0"
     inkscape:pagecheckerboard="0"
     inkscape:deskcolor="#d1d1d1" />
  <g
     id="g8"
     inkscape:groupmode="layer"
     inkscape:label="ink_ext_XXXXXX"
     transform="matrix(1.3333333,0,0,-1.3333333,0,734.66667)">
    <g
       id="g10"
       transform="scale(0.1)">
      <path
         d="m 916.16,5236.3 1.488,-180.32 749.502,-1.12 v 445.67 h 914.37 v -444.36 l 750.28,-3.06 v 447.42 h 914.37 v -1173.4 h -0.13 l 0.12,-3860.341 C 4235.54,271.879 4103.13,211.109 4035.21,208.32 L 2317.17,207.797 C 2208.32,204.426 2124.11,117.727 2123.77,5.1875 2123.45,117.434 2039.65,207.98 1931.21,207.68 L 221.363,207.16 C 146.293,207.137 13.3438,254.871 1.80078,466.594 L 1.79297,4327.13 v 1043.72 129.68 H 916.16 V 5236.3"
         style="fill:#00adef;fill-opacity:1;fill-rule:evenodd;stroke:none"
         id="path12" />
      <path
         d="m 4088.32,3580.85 c 0.04,2.63 0.06,5.26 0.06,7.88 0,550.97 -452.17,998.07 -1009.38,998.07 -442.65,0 -818.97,-282.19 -955.01,-674.43 -136.04,392.24 -512.37,674.43 -955.03,674.43 -557.21,0 -1009.374,-447.1 -1009.374,-998.07 0,-2.69 0.019,-5.39 0.051,-8.1 0,-182.03 0,-2468.75 0,-2468.75 1309.563,0 2619.133,0 3928.683,0 z m -117.96,-2326.91 -117.95,141.99 v 2186.44 c 0.04,2.12 0.06,4.24 0.06,6.36 0,422.23 -346.45,764.8 -773.47,764.8 -427.02,0 -773.46,-342.57 -773.46,-764.8 0,-2.18 0.02,-4.36 0.05,-6.54 V 2325.62 c 258.18,0 516.37,0 774.55,0 l -420.68,506.43 v 752.7 c -0.02,1.32 -0.06,2.65 -0.06,3.98 0,229.11 187.91,414.9 419.6,414.9 231.7,0 419.6,-185.79 419.6,-414.9 0,-1.27 -0.03,-2.53 -0.05,-3.81 V 1821.93 l -401.64,483.51 -972.93,-1193.56 -976.29,1197.5 -398.272,-482.67 v 1758.04 c -0.016,1.32 -0.055,2.65 -0.055,3.98 0,229.11 187.903,414.9 419.597,414.9 231.7,0 419.6,-185.79 419.6,-414.9 0,-1.27 -0.03,-2.53 -0.05,-3.81 v -741.3 l -427.42,-518 c 260.43,0 520.86,0 781.29,0 v 1256.75 c 0.03,2.12 0.05,4.24 0.05,6.36 0,422.23 -346.45,764.8 -773.47,764.8 -427.015,0 -773.468,-342.57 -773.468,-764.8 0,-2.18 0.031,-4.36 0.055,-6.54 V 1397.84 L 277.598,1254.9 v 2326.48 c -0.043,2.45 -0.051,4.9 -0.051,7.35 0,486.59 399.316,881.43 891.413,881.43 492.1,0 891.42,-394.84 891.42,-881.43 0,-2.39 -0.01,-4.78 -0.06,-7.16 V 2325.62 h 127.32 v 1255.76 c -0.04,2.45 -0.05,4.9 -0.05,7.35 0,486.59 399.32,881.43 891.41,881.43 492.1,0 891.41,-394.84 891.41,-881.43 0,-2.39 0,-4.78 -0.05,-7.16 z m -235.9,283.99 -92.57,111.44 V 3584 c 0.02,1.58 0.05,3.16 0.05,4.73 0,307.33 -252.13,556.63 -562.94,556.63 -310.8,0 -562.93,-249.3 -562.93,-556.63 0,-1.65 0.02,-3.3 0.05,-4.96 v -579.16 l -92.58,111.44 V 3583 l -0.01,0.82 c -0.02,1.63 -0.03,3.27 -0.03,4.91 0,357.86 293.59,648.16 655.5,648.16 361.91,0 655.51,-290.3 655.51,-648.16 0,-1.56 -0.01,-3.13 -0.03,-4.69 l -0.02,-0.84 z M 606.078,1652.99 513.5,1540.79 V 3583 l -0.016,0.82 c -0.019,1.63 -0.031,3.27 -0.031,4.91 0,357.86 293.602,648.16 655.507,648.16 361.91,0 655.51,-290.3 655.51,-648.16 0,-1.56 -0.01,-3.13 -0.03,-4.69 l -0.02,-0.84 v -453.68 l -92.57,-112.19 V 3584 c 0.02,1.58 0.04,3.16 0.04,4.73 0,307.33 -252.12,556.63 -562.93,556.63 -310.804,0 -562.933,-249.3 -562.933,-556.63 0,-1.65 0.028,-3.3 0.051,-4.96 V 1652.99"
         style="fill:#ffffff;fill-opacity:1;fill-rule:evenodd;stroke:none"
         id="path14" />
      <path
         d="m 3984.55,869.145 h -79.11 c -40.19,0 -66.6,-0.817 -79.22,-2.688 -12.73,-1.871 -23.6,-7.945 -32.71,-18.461 -9.12,-10.516 -13.67,-24.183 -13.67,-41.129 0,-17.523 4.44,-31.547 13.2,-41.945 8.76,-10.402 19.98,-16.828 33.53,-19.281 13.56,-2.571 41.25,-3.739 82.97,-3.739 h 75.01 z m 0,-416.899 v 209.5 h -20.57 c -31.89,0 -54.44,-4.789 -67.65,-14.371 -13.08,-9.582 -35.52,-38.207 -67.19,-85.879 l -73.26,-109.25 h -121.16 l 61.22,97.914 c 24.19,38.793 43.47,66.02 57.84,81.676 14.37,15.539 32.48,29.562 54.1,41.945 -46.74,7.246 -80.5,23.485 -101.31,48.727 -20.79,25.234 -31.19,55.383 -31.19,90.551 0,30.613 7.71,57.722 23.14,81.324 15.42,23.605 35.75,39.496 60.99,47.555 25.12,8.062 62.86,12.152 113.1,12.152 h 213.24 V 452.246 Z M 3181.71,954.09 h 94.88 V 620.035 L 3479.9,954.09 h 100.95 V 452.246 h -94.76 V 779.879 L 3283.02,452.246 H 3181.71 Z M 2847,869.848 c 0,-152.368 -13.79,-263.602 -41.37,-333.356 h 190.69 v 333.356 z m -96.52,84.242 h 346.79 V 536.492 h 44.17 V 342.762 H 3057.2 V 452.246 H 2741.25 V 342.762 H 2657 v 193.73 h 42.54 c 20.68,42.879 34.47,92.656 41.01,149.442 6.66,56.671 9.93,128.414 9.93,215.109 z m -309.79,-303.324 -69.17,186.246 -67.77,-186.246 z m 186.6,-198.52 h -110.3 l -43.82,114.039 h -200.62 l -41.37,-114.039 h -107.49 l 195.48,501.844 h 107.15 z M 1779.35,670.977 V 536.84 h 93.71 c 36.57,0 59.71,0.937 69.52,3.039 15.07,2.687 27.34,9.465 36.81,19.98 9.46,10.633 14.25,24.887 14.25,42.649 0,15.07 -3.74,27.808 -10.98,38.324 -7.36,10.516 -17.88,18.227 -31.66,23.016 -13.79,4.793 -43.82,7.129 -89.86,7.129 z m 0,199.574 V 754.52 h 66.36 c 39.5,0 64.04,0.585 73.62,1.753 17.29,1.989 30.96,7.946 40.89,17.879 9.94,9.93 14.84,23.016 14.84,39.258 0,15.539 -4.2,28.16 -12.73,37.856 -8.65,9.703 -21.38,15.543 -38.21,17.527 -10.05,1.168 -38.91,1.758 -86.58,1.758 z m -101.42,83.539 h 200.62 c 39.73,0 69.41,-1.633 88.92,-5.024 19.51,-3.273 36.92,-10.164 52.34,-20.683 15.43,-10.512 28.16,-24.418 38.45,-41.942 10.28,-17.41 15.42,-37.043 15.42,-58.66 0,-23.484 -6.31,-45.101 -18.93,-64.73 -12.73,-19.629 -29.91,-34.352 -51.53,-44.168 30.5,-8.879 54.1,-24.067 70.46,-45.453 16.48,-21.496 24.65,-46.739 24.65,-75.711 0,-22.785 -5.26,-44.989 -15.89,-66.606 -10.63,-21.496 -25.12,-38.793 -43.46,-51.644 -18.35,-12.852 -41.02,-20.797 -68.01,-23.836 -16.82,-1.75 -57.6,-2.918 -122.22,-3.387 H 1677.93 Z M 1216.16,703.461 c 0,-56.785 13.2,-99.902 39.38,-129.231 26.29,-29.328 59.59,-43.933 100.01,-43.933 40.32,0 73.5,14.488 99.44,43.699 25.82,29.094 38.79,72.68 38.79,130.867 0,57.489 -12.62,100.371 -37.74,128.762 -25.24,28.273 -58.77,42.414 -100.49,42.414 -41.82,0 -75.48,-14.371 -101.07,-43 -25.47,-28.625 -38.32,-71.742 -38.32,-129.578 z m -104.34,-3.387 c 0,51.176 7.59,94.059 22.9,128.762 11.45,25.469 26.99,48.488 46.74,68.82 19.75,20.215 41.36,35.285 64.85,45.102 31.31,13.32 67.3,19.863 108.19,19.863 73.97,0 133.09,-22.902 177.49,-68.824 44.4,-45.801 66.6,-109.598 66.6,-191.274 0,-81.085 -22.08,-144.418 -66.13,-190.218 -44.05,-45.688 -102.94,-68.59 -176.55,-68.59 -74.67,0 -134.02,22.785 -178.07,68.238 -44.05,45.57 -66.02,108.313 -66.02,188.121 z M 766.078,869.145 V 726.828 h 55.383 c 39.961,0 66.719,2.574 80.156,7.832 13.438,5.258 23.953,13.434 31.664,24.653 7.598,11.214 11.449,24.187 11.449,39.027 0,18.226 -5.371,33.297 -16.121,45.219 -10.632,11.8 -24.304,19.277 -40.664,22.199 -12.152,2.336 -36.453,3.387 -72.91,3.387 z M 664.773,452.246 V 954.09 h 162.532 c 61.578,0 101.773,-2.57 120.465,-7.594 28.746,-7.476 52.93,-23.836 72.33,-49.074 19.4,-25.238 29.09,-57.84 29.09,-97.684 0,-30.843 -5.61,-56.785 -16.83,-77.699 -11.21,-21.035 -25.35,-37.508 -42.641,-49.543 -17.176,-11.918 -34.703,-19.863 -52.465,-23.719 -24.184,-4.789 -59.238,-7.246 -105.16,-7.246 H 766.078 V 452.246 Z M 162.113,954.09 H 561.25 V 452.246 H 459.945 V 869.848 H 263.414 V 452.246 H 162.113 V 954.09"
         style="fill:#ffffff;fill-opacity:1;fill-rule:nonzero;stroke:none"
         id="path16" />
    </g>
  </g>
</svg>
